PathFileType	4	(X/Y/Z)	C:\My Captures\DataSMARTClinic\0004~001 ID\0004~aa~STRATO_01\Standing_STRATO_ID_01.trc
DataRate	CameraRate	NumFrames	NumMarkers	Units	OrigDataRate	OrigDataStartFrame	OrigNumFrames
250.00	250.00	6	22	mm	250.00	1681	2711
Frame#	Time	r.should			l.should			c7			r.asis			l.asis			sacrum			r.bar1			l.bar1			r.knee1			l.knee1			r.bar2			r.mall			l.bar2			l.mall			r.met			r.heel			l.heel			l.met			r.mallm			l.mallm			r.kneem			l.kneem			
		X1	Y1	Z1	X2	Y2	Z2	X3	Y3	Z3	X4	Y4	Z4	X5	Y5	Z5	X6	Y6	Z6	X7	Y7	Z7	X8	Y8	Z8	X9	Y9	Z9	X10	Y10	Z10	X11	Y11	Z11	X12	Y12	Z12	X13	Y13	Z13	X14	Y14	Z14	X15	Y15	Z15	X16	Y16	Z16	X17	Y17	Z17	X18	Y18	Z18	X19	Y19	Z19	X20	Y20	Z20	X21	Y21	Z21	X22	Y22	Z22	

1680	6.720000	882.953107	1282.277465	340.135396	843.569636	1280.953288	36.594339	775.747240	1346.209407	189.396083	934.247434	873.075366	345.173895	953.650951	873.895288	76.395415	739.918888	900.500894	193.629310	864.256084	786.290586	392.347693	894.238591	773.781300	16.042255	838.273883	438.341796	355.628669	848.571777	434.670359	37.401665	818.856895	377.947628	360.535681	810.100377	79.360366	332.354635	840.358973	367.486537	31.839572	818.729877	75.941242	48.928399	933.959126	43.939859	313.296944	750.157237	43.778203	291.600823	751.315475	42.698435	83.393589	944.875658	41.348729	83.367489	812.129080	76.084450	252.406925	822.234154	81.948563	126.038074	824.068189	410.481632	228.483140	839.259505	406.240553	163.872153	
1681	6.724000	882.964551	1282.271028	340.139747	843.577921	1280.958772	36.588997	775.784135	1346.191287	189.393699	934.248686	873.059452	345.176399	953.654647	873.889089	76.391637	739.931226	900.497735	193.621859	864.334464	786.276817	392.357141	894.248188	773.798704	16.051793	838.285923	438.356817	355.636418	848.577321	434.657097	37.405990	818.879604	377.948642	360.541016	810.108721	79.353064	332.352996	840.354145	367.478669	31.836927	818.719745	75.925857	48.927013	933.962941	43.935232	313.300461	750.210881	43.751188	291.584849	751.325727	42.702422	83.392642	944.893360	41.348398	83.375625	812.139273	76.080784	252.416074	822.238088	81.940964	126.040637	824.067593	410.472810	228.490293	839.270353	406.229675	163.871646	
1682	6.728000	882.980466	1282.272220	340.137005	843.592227	1280.960917	36.590178	775.780439	1346.199393	189.381242	934.266567	873.063505	345.189542	953.669906	873.878360	76.387748	739.946902	900.488794	193.620518	864.357591	786.275923	392.386138	894.253910	773.776710	16.055791	838.305473	438.368499	355.655313	848.587573	434.652686	37.413850	818.904877	377.944559	360.539407	810.124397	79.355635	332.353234	840.364873	367.480010	31.831704	818.724751	75.925387	48.929662	933.977962	43.934908	313.303053	750.245988	43.736979	291.603148	751.296282	42.704847	83.395213	944.895208	41.341737	83.383955	812.158763	76.088659	252.415597	822.239399	81.939317	126.052856	824.086607	410.472363	228.495955	839.287579	406.216174	163.876861	
1683	6.732000	882.986069	1282.273054	340.136260	843.606889	1280.965090	36.599915	775.782824	1346.202374	189.403713	934.308231	873.077512	345.211595	953.687608	873.871446	76.403789	739.962101	900.476456	193.630904	864.382565	786.266625	392.354548	894.304395	773.774326	16.073447	838.321567	438.366026	355.653584	848.613381	434.656888	37.418477	818.912566	377.940387	360.543430	810.128570	79.344906	332.354426	840.378642	367.479652	31.843834	818.744540	75.928487	48.940964	933.982313	43.929502	313.317478	750.267327	43.720637	291.611761	751.313508	42.696524	83.406597	944.894910	41.334540	83.389118	812.155962	76.076403	252.416223	822.237372	81.929952	126.063287	824.099302	410.472989	228.493899	839.298010	406.208843	163.883850	
1684	6.736000	882.983923	1282.262802	340.138584	843.609095	1280.965090	36.603950	775.807858	1346.184015	189.433172	934.316516	873.078167	345.196962	953.693509	873.864532	76.417014	739.962876	900.477767	193.630844	864.358008	786.300540	392.347693	894.288063	773.770690	16.067386	838.339031	438.353300	355.652303	848.608196	434.651673	37.411720	818.914175	377.933919	360.551894	810.123861	79.341471	332.365900	840.397716	367.489517	31.847917	818.755448	75.924985	48.942652	933.976948	43.926444	313.323379	750.291705	43.700591	291.604906	751.325846	42.705715	83.419360	944.900215	41.326802	83.395757	812.153280	76.074429	252.432644	822.240114	81.923321	126.068011	824.113488	410.482407	228.494197	839.302123	406.199336	163.882613	
1685	6.740000	882.969379	1282.252312	340.143621	843.628645	1280.961871	36.604322	775.797844	1346.180081	189.437270	934.302986	873.057246	345.196187	953.695834	873.858035	76.421894	739.961147	900.480866	193.618387	864.327073	786.289215	392.351598	894.303560	773.777246	16.078807	838.334978	438.362300	355.656564	848.610640	434.650749	37.407704	818.928182	377.931476	360.544920	810.130954	79.334579	332.370847	840.384841	367.478698	31.844165	818.763077	75.921968	48.933402	933.977723	43.922149	313.317448	750.321686	43.683149	291.599095	751.311541	42.725280	83.421536	944.902956	41.317649	83.395734	812.149942	76.065540	252.445847	822.244704	81.909738	126.065254	824.119925	410.476416	228.491008	839.312077	406.198084	163.887322	
